<?xml version="1.0" encoding="utf-8"?>
<!-- Generator: Adobe Illustrator 28.2.0, SVG Export Plug-In . SVG Version: 6.00 Build 0)  -->
<svg version="1.1" id="Layer_1" xmlns="http://www.w3.org/2000/svg" xmlns:xlink="http://www.w3.org/1999/xlink" x="0px" y="0px"
	 viewBox="0 0 335.95 117.09" style="enable-background:new 0 0 335.95 117.09;" xml:space="preserve">
<style type="text/css">
	.st0{fill:#FFFFFF;}
	.st1{fill:#1978B0;}
	.st2{fill:#231F20;}
	.st3{fill:#455161;}
</style>
<path class="st1" d="M93.79,45.05l-1.9-5.7c-0.82-2.45-2.8-4.27-5.32-4.86c-2.51-0.59-5.1,0.14-6.93,1.97L66.01,50.09L52.38,36.46
	c-1.83-1.83-4.42-2.56-6.93-1.97c-2.51,0.59-4.5,2.41-5.32,4.86l-1.9,5.7c-1.82,5.46-0.42,11.38,3.65,15.45l7.01,7.01
	c-3.24,4.75-2.77,11.3,1.45,15.52l8.64,8.64l1.6-1.6c2.31-2.31,3.58-5.37,3.58-8.64c0-3.26-1.27-6.33-3.58-8.64l-5.43-5.43
	l10.87-10.87l10.87,10.87l-5.43,5.43c-2.31,2.31-3.58,5.37-3.58,8.64c0,3.26,1.27,6.33,3.58,8.64l1.6,1.6l8.64-8.64
	c2.31-2.31,3.58-5.37,3.58-8.64c0-2.49-0.75-4.87-2.13-6.88l7.01-7.01C94.21,56.43,95.61,50.51,93.79,45.05z M59.63,81.43
	c0,1.27-0.31,2.5-0.89,3.59l-5.2-5.2c-2.44-2.44-2.89-6.12-1.36-9.03L57.38,76C58.83,77.45,59.63,79.38,59.63,81.43z M51.94,64.16
	L51.94,64.16L51.94,64.16l-6.86-6.86c-2.85-2.85-3.83-6.99-2.55-10.82l1.9-5.7c0.32-0.96,1.07-1.65,2.06-1.89
	c0.23-0.05,0.46-0.08,0.68-0.08c0.75,0,1.45,0.29,2,0.84l13.63,13.63L51.94,64.16z M78.48,79.83l-5.2,5.2
	c-0.58-1.09-0.89-2.32-0.89-3.59c0-2.05,0.8-3.98,2.25-5.43l5.2-5.2c0.58,1.09,0.89,2.32,0.89,3.59
	C80.73,76.45,79.93,78.38,78.48,79.83z M86.94,57.3l-6.86,6.86L69.21,53.29l13.63-13.63c0.72-0.72,1.7-1,2.69-0.76
	c0.99,0.23,1.74,0.92,2.06,1.89l1.9,5.7C90.77,50.31,89.79,54.45,86.94,57.3z"/>
<g>
	<path class="st0" d="M106.57,49.22h4.61l3.88,5.48c1.45,2.02,4.45,6.39,4.45,6.39s3.04-4.34,4.45-6.36l3.88-5.52h4.61v24.66h-5.33
		V58.28c0,0-0.95,1.56-2.25,3.43l-5.37,7.65l-5.41-7.69c-1.26-1.79-2.21-3.39-2.21-3.39v15.61h-5.33V49.22z"/>
	<path class="st0" d="M134.89,64.37c0-5.48,3.35-9.9,8.6-9.9c2.21,0,4.57,0.88,5.94,2.7v-2.32h4.99v19.03h-4.99V71.6
		c-1.33,1.83-3.73,2.66-5.94,2.66C138.24,74.26,134.89,69.85,134.89,64.37z M149.32,64.37c0-2.97-1.9-5.18-4.53-5.18
		c-2.74,0-4.72,2.21-4.72,5.18c0,3.01,1.98,5.18,4.72,5.18C147.41,69.54,149.32,67.41,149.32,64.37z"/>
	<path class="st0" d="M156.85,54.85h4.99v2.55c1.52-2.09,3.69-2.93,6.01-2.93c5.02,0,6.77,3.24,6.77,8.45v10.96h-5.1V63.57
		c0-2.78-0.72-4.26-3.31-4.26c-2.55,0-4.26,2.05-4.26,4.95v9.63h-5.1V54.85z"/>
	<path class="st0" d="M178.67,74.84c2.36,0,3.24-0.8,3.92-2.28l0.42-0.84l-7.95-16.86h5.18l3.84,8.91c0.57,1.33,1.26,3.24,1.26,3.24
		s0.8-2.25,1.22-3.35l3.46-8.79h5.1l-8.45,19.56c-2.06,4.68-5.63,5.06-7.99,5.06V74.84z"/>
	<path class="st0" d="M197.77,54.85h4.99v2.55c1.1-1.71,3.35-2.93,5.63-2.93c3.01,0,4.87,1.26,5.86,3.39c1.37-2.28,4-3.39,6.17-3.39
		c5.37,0,7.04,3.69,7.04,8.56v10.85h-5.1v-10.2c0-2.51-0.61-4.38-3.31-4.38c-2.51,0-3.88,2.02-3.88,4.53v10.05h-5.1v-10.2
		c0-2.51-0.57-4.38-3.31-4.38c-2.59,0-3.88,2.21-3.88,4.72v9.86h-5.1V54.85z"/>
	<path class="st0" d="M229.42,49.52c0-1.67,1.37-3.05,3.01-3.05c1.68,0,3.05,1.37,3.05,3.05c0,1.64-1.37,3.01-3.05,3.01
		C230.79,52.53,229.42,51.16,229.42,49.52z M229.92,54.85h5.1v19.03h-5.1V54.85z"/>
	<path class="st0" d="M237.44,54.85h4.99v2.55c1.52-2.09,3.69-2.93,6.01-2.93c5.02,0,6.77,3.24,6.77,8.45v10.96h-5.1V63.57
		c0-2.78-0.72-4.26-3.31-4.26c-2.55,0-4.26,2.05-4.26,4.95v9.63h-5.1V54.85z"/>
	<path class="st0" d="M257.65,64.37c0-5.48,3.43-9.9,8.68-9.9c2.21,0,4.38,0.88,5.75,2.51v-8.15h5.1v25.05h-4.83V71.6
		c-1.37,1.83-3.81,2.66-6.09,2.66C261,74.26,257.65,69.85,257.65,64.37z M272.07,64.37c0-2.97-1.9-5.18-4.53-5.18
		c-2.74,0-4.72,2.21-4.72,5.18c0,3.01,1.98,5.18,4.72,5.18C270.17,69.54,272.07,67.41,272.07,64.37z"/>
	<path class="st0" d="M278.85,71.68l1.83-3.92c1.29,0.99,3.08,2.02,5.94,2.02c1.18,0,3.12-0.46,3.12-1.6c0-1.14-1.64-1.41-3.27-1.87
		c-3.77-0.99-6.85-2.25-6.85-5.9c0-3.88,3.81-5.94,7.38-5.94c3.12,0,5.1,0.76,7.08,1.9l-1.71,3.81c-1.87-0.91-3.62-1.33-5.29-1.33
		c-1.18,0-2.28,0.53-2.28,1.33c0,1.07,1.6,1.41,3.35,1.79c3.24,0.76,6.77,2.17,6.77,6.05c0,4.68-4.76,6.24-8.3,6.24
		C282.55,74.26,279.92,72.67,278.85,71.68z"/>
</g>
</svg>
